<mxfile host="app.diagrams.net" modified="2023-05-03T13:20:39.500Z" agent="Mozilla/5.0 (Windows NT 10.0; Win64; x64) AppleWebKit/537.36 (KHTML, like Gecko) Chrome/112.0.0.0 Safari/537.36" version="21.1.4" etag="hVr6Zyg1D3_V7B6xggro" type="device">
  <diagram id="C5RBs43oDa-KdzZeNtuy" name="Page-1">
    <mxGraphModel dx="1689" dy="889" grid="1" gridSize="10" guides="1" tooltips="1" connect="1" arrows="1" fold="1" page="1" pageScale="1" pageWidth="827" pageHeight="1169" math="0" shadow="0">
      <root>
        <mxCell id="WIyWlLk6GJQsqaUBKTNV-0" />
        <mxCell id="WIyWlLk6GJQsqaUBKTNV-1" parent="WIyWlLk6GJQsqaUBKTNV-0" />
        <mxCell id="zkfFHV4jXpPFQw0GAbJ--0" value="playerCombat" style="swimlane;fontStyle=2;align=center;verticalAlign=top;childLayout=stackLayout;horizontal=1;startSize=26;horizontalStack=0;resizeParent=1;resizeLast=0;collapsible=1;marginBottom=0;rounded=0;shadow=0;strokeWidth=1;" parent="WIyWlLk6GJQsqaUBKTNV-1" vertex="1">
          <mxGeometry x="30" y="30" width="230" height="270" as="geometry">
            <mxRectangle x="230" y="140" width="160" height="26" as="alternateBounds" />
          </mxGeometry>
        </mxCell>
        <mxCell id="zkfFHV4jXpPFQw0GAbJ--1" value="-public Animator animator;&#xa;-public Transform climbAttackPoint;&#xa;-public LayerMask enemylayers;&#xa;-public int cattackdamage &#xa;-public float cattackRange &#xa;-public float attackr &#xa;-float nextattacktime " style="text;align=left;verticalAlign=top;spacingLeft=4;spacingRight=4;overflow=hidden;rotatable=0;points=[[0,0.5],[1,0.5]];portConstraint=eastwest;" parent="zkfFHV4jXpPFQw0GAbJ--0" vertex="1">
          <mxGeometry y="26" width="230" height="174" as="geometry" />
        </mxCell>
        <mxCell id="zkfFHV4jXpPFQw0GAbJ--4" value="" style="line;html=1;strokeWidth=1;align=left;verticalAlign=middle;spacingTop=-1;spacingLeft=3;spacingRight=3;rotatable=0;labelPosition=right;points=[];portConstraint=eastwest;" parent="zkfFHV4jXpPFQw0GAbJ--0" vertex="1">
          <mxGeometry y="200" width="230" height="8" as="geometry" />
        </mxCell>
        <mxCell id="nKoJPLb-zGdAQr9RfCIC-0" value="+void update&lt;br&gt;+void attack&lt;br&gt;+void OndrawGizmosSelected" style="text;strokeColor=none;fillColor=none;align=left;verticalAlign=middle;spacingLeft=4;spacingRight=4;overflow=hidden;points=[[0,0.5],[1,0.5]];portConstraint=eastwest;rotatable=0;whiteSpace=wrap;html=1;" vertex="1" parent="zkfFHV4jXpPFQw0GAbJ--0">
          <mxGeometry y="208" width="230" height="62" as="geometry" />
        </mxCell>
        <mxCell id="nKoJPLb-zGdAQr9RfCIC-1" value="player_movement" style="swimlane;whiteSpace=wrap;html=1;" vertex="1" parent="WIyWlLk6GJQsqaUBKTNV-1">
          <mxGeometry x="313" y="30" width="270" height="290" as="geometry" />
        </mxCell>
        <mxCell id="nKoJPLb-zGdAQr9RfCIC-3" value="&lt;div&gt;-public Animator animator&lt;/div&gt;&lt;div&gt;-private float horizontal&lt;/div&gt;&lt;div&gt;-private float speed&lt;/div&gt;&lt;div&gt;-private float jumpingForce&lt;/div&gt;&lt;div&gt;-private float crouchSpeed&lt;/div&gt;&lt;div&gt;-private bool isFacingRight&lt;/div&gt;&lt;div&gt;-private bool isCrouching&lt;/div&gt;&lt;div&gt;-private float slopeForce&lt;/div&gt;&lt;div&gt;-private float&amp;nbsp;&lt;span style=&quot;background-color: initial;&quot;&gt;slopeForceRayLength&lt;/span&gt;&lt;/div&gt;&lt;div&gt;&lt;br&gt;&lt;/div&gt;" style="text;strokeColor=none;fillColor=none;align=left;verticalAlign=middle;spacingLeft=4;spacingRight=4;overflow=hidden;points=[[0,0.5],[1,0.5]];portConstraint=eastwest;rotatable=0;whiteSpace=wrap;html=1;" vertex="1" parent="nKoJPLb-zGdAQr9RfCIC-1">
          <mxGeometry x="10" y="26" width="200" height="190" as="geometry" />
        </mxCell>
        <mxCell id="nKoJPLb-zGdAQr9RfCIC-6" value="+void Update&lt;br&gt;+private void FixedUpdate&lt;br&gt;+private bool IsGrounded&lt;br&gt;+private void Flip" style="text;strokeColor=none;fillColor=none;align=left;verticalAlign=middle;spacingLeft=4;spacingRight=4;overflow=hidden;points=[[0,0.5],[1,0.5]];portConstraint=eastwest;rotatable=0;whiteSpace=wrap;html=1;" vertex="1" parent="nKoJPLb-zGdAQr9RfCIC-1">
          <mxGeometry x="21" y="220" width="209" height="70" as="geometry" />
        </mxCell>
        <mxCell id="nKoJPLb-zGdAQr9RfCIC-5" value="" style="endArrow=none;html=1;rounded=0;exitX=0;exitY=0.75;exitDx=0;exitDy=0;entryX=1;entryY=0.75;entryDx=0;entryDy=0;" edge="1" parent="WIyWlLk6GJQsqaUBKTNV-1" source="nKoJPLb-zGdAQr9RfCIC-1" target="nKoJPLb-zGdAQr9RfCIC-1">
          <mxGeometry width="50" height="50" relative="1" as="geometry">
            <mxPoint x="300" y="170" as="sourcePoint" />
            <mxPoint x="350" y="120" as="targetPoint" />
          </mxGeometry>
        </mxCell>
        <mxCell id="nKoJPLb-zGdAQr9RfCIC-8" value="camera_movement" style="swimlane;whiteSpace=wrap;html=1;" vertex="1" parent="WIyWlLk6GJQsqaUBKTNV-1">
          <mxGeometry x="30" y="340" width="200" height="70" as="geometry" />
        </mxCell>
        <mxCell id="nKoJPLb-zGdAQr9RfCIC-9" value="+void start&lt;br&gt;+void update" style="text;strokeColor=none;fillColor=none;align=left;verticalAlign=middle;spacingLeft=4;spacingRight=4;overflow=hidden;points=[[0,0.5],[1,0.5]];portConstraint=eastwest;rotatable=0;whiteSpace=wrap;html=1;" vertex="1" parent="nKoJPLb-zGdAQr9RfCIC-8">
          <mxGeometry x="10" y="30" width="80" height="40" as="geometry" />
        </mxCell>
        <mxCell id="nKoJPLb-zGdAQr9RfCIC-10" value="Enemy" style="swimlane;fontStyle=0;childLayout=stackLayout;horizontal=1;startSize=30;horizontalStack=0;resizeParent=1;resizeParentMax=0;resizeLast=0;collapsible=1;marginBottom=0;whiteSpace=wrap;html=1;" vertex="1" parent="WIyWlLk6GJQsqaUBKTNV-1">
          <mxGeometry x="344" y="360" width="190" height="190" as="geometry" />
        </mxCell>
        <mxCell id="nKoJPLb-zGdAQr9RfCIC-14" value="&lt;div&gt;-public Animator animator&lt;/div&gt;&lt;div&gt;-public Rigidbody2D rigidbody2D&lt;/div&gt;&lt;div&gt;-public int maxHP&lt;/div&gt;&lt;div&gt;-int currentHP&lt;/div&gt;&lt;div&gt;&lt;br&gt;&lt;/div&gt;" style="text;strokeColor=none;fillColor=none;align=left;verticalAlign=middle;spacingLeft=4;spacingRight=4;overflow=hidden;points=[[0,0.5],[1,0.5]];portConstraint=eastwest;rotatable=0;whiteSpace=wrap;html=1;" vertex="1" parent="nKoJPLb-zGdAQr9RfCIC-10">
          <mxGeometry y="30" width="190" height="100" as="geometry" />
        </mxCell>
        <mxCell id="nKoJPLb-zGdAQr9RfCIC-15" value="" style="endArrow=none;html=1;rounded=0;exitX=-0.01;exitY=0.776;exitDx=0;exitDy=0;exitPerimeter=0;entryX=1.007;entryY=0.785;entryDx=0;entryDy=0;entryPerimeter=0;" edge="1" parent="nKoJPLb-zGdAQr9RfCIC-10" source="nKoJPLb-zGdAQr9RfCIC-14" target="nKoJPLb-zGdAQr9RfCIC-14">
          <mxGeometry width="50" height="50" relative="1" as="geometry">
            <mxPoint x="-64" y="70" as="sourcePoint" />
            <mxPoint x="186" y="108" as="targetPoint" />
          </mxGeometry>
        </mxCell>
        <mxCell id="nKoJPLb-zGdAQr9RfCIC-16" value="+void start&lt;br&gt;+void TakeDamage&lt;br&gt;+void die&lt;br&gt;" style="text;strokeColor=none;fillColor=none;align=left;verticalAlign=middle;spacingLeft=4;spacingRight=4;overflow=hidden;points=[[0,0.5],[1,0.5]];portConstraint=eastwest;rotatable=0;whiteSpace=wrap;html=1;" vertex="1" parent="nKoJPLb-zGdAQr9RfCIC-10">
          <mxGeometry y="130" width="190" height="60" as="geometry" />
        </mxCell>
        <mxCell id="nKoJPLb-zGdAQr9RfCIC-17" value="Invisble" style="swimlane;fontStyle=0;childLayout=stackLayout;horizontal=1;startSize=30;horizontalStack=0;resizeParent=1;resizeParentMax=0;resizeLast=0;collapsible=1;marginBottom=0;whiteSpace=wrap;html=1;" vertex="1" parent="WIyWlLk6GJQsqaUBKTNV-1">
          <mxGeometry x="30" y="440" width="220" height="60" as="geometry" />
        </mxCell>
        <mxCell id="nKoJPLb-zGdAQr9RfCIC-18" value="+override public void OnStateEnter&lt;br&gt;+override public void OnStateExit" style="text;strokeColor=none;fillColor=none;align=left;verticalAlign=middle;spacingLeft=4;spacingRight=4;overflow=hidden;points=[[0,0.5],[1,0.5]];portConstraint=eastwest;rotatable=0;whiteSpace=wrap;html=1;" vertex="1" parent="nKoJPLb-zGdAQr9RfCIC-17">
          <mxGeometry y="30" width="220" height="30" as="geometry" />
        </mxCell>
      </root>
    </mxGraphModel>
  </diagram>
</mxfile>
